<svg xmlns="http://www.w3.org/2000/svg" width="120.453" height="132.87" viewBox="0 0 120.453 132.87"><g id="_49128" data-name="49128" transform="translate(-1.581)"><path id="Path_592" data-name="Path 592" d="M122.034,115.2V132.87H1.581V115.194c0-8.345,7.194-18.618,15.983-22.793L37.121,83.11,50.7,111.4l6.951-18.846a22.268,22.268,0,0,0,4.159.6,22.315,22.315,0,0,0,4.159-.6l6.6,17.919L85.873,82.8l20.189,9.6C114.839,96.572,122.034,106.845,122.034,115.2ZM19.347,53.26V40.5a6.113,6.113,0,0,1,2.828-5.152,39.906,39.906,0,0,1,79.289,0,6.119,6.119,0,0,1,2.824,5.152V53.26a6.138,6.138,0,0,1-12.276,0V50.577C88.688,67.287,76.455,82.8,61.819,82.8S34.95,67.287,31.627,50.577V53.26a6.125,6.125,0,0,1-4.32,5.832A35.816,35.816,0,0,0,42.655,79.3a6.259,6.259,0,0,1,4.819.511c2.718,1.414,4.1,4.163,3.075,6.126s-4.057,2.4-6.79.986A5.94,5.94,0,0,1,40.365,82.5,39.782,39.782,0,0,1,23.2,58.946,6.128,6.128,0,0,1,19.347,53.26Zm7.01-19.349a1.789,1.789,0,0,1,.538.082,1.95,1.95,0,0,1,.99.856,6.117,6.117,0,0,1,3.044,2.879c1.81-16.969,14.927-25.946,30.879-25.946s29.069,8.977,30.879,25.946a6.088,6.088,0,0,1,4.654-3.287,35.946,35.946,0,0,0-70.983-.53Z" transform="translate(0)" fill="#3d63af"></path></g></svg>