<svg xmlns="http://www.w3.org/2000/svg" width="88.528" height="101.688" viewBox="0 0 88.528 101.688"><g id="Man_icon-02" data-name="Man icon-02" transform="translate(-197.23 -169.54)"><path id="Path_596" data-name="Path 596" d="M402.5,203.847a17.154,17.154,0,1,1,17.154-17.154A17.154,17.154,0,0,1,402.5,203.847Zm0-30.165A13.015,13.015,0,1,0,415.518,186.7,13.015,13.015,0,0,0,402.5,173.682Z" transform="translate(-160.838 0)" fill="#3d63ae"></path><path id="Path_597" data-name="Path 597" d="M316.8,395.374l-3.555-2.119a32.3,32.3,0,0,1,27.61-15.695,31.905,31.905,0,0,1,27.484,15.483l-3.539,2.146A27.8,27.8,0,0,0,340.86,381.7,28.144,28.144,0,0,0,316.8,395.374Z" transform="translate(-99.194 -177.852)" fill="#3d63ae"></path><path id="Path_598" data-name="Path 598" d="M495.5,458.531l38.95-11.825a1.16,1.16,0,0,1,1.5,1.111V497.3a1.16,1.16,0,0,1-.87,1.123L497.845,508.1m1.788-46.5v41.756l31.3-8.134a1.16,1.16,0,0,0,.87-1.122V453.4a1.16,1.16,0,0,0-1.5-1.111Z" transform="translate(-255.013 -236.927)" fill="#3d63ae"></path><path id="Path_599" data-name="Path 599" d="M284.223,508.15l-37.453-9.733a1.16,1.16,0,0,1-.87-1.122V447.81a1.16,1.16,0,0,1,1.5-1.109l38.95,11.827V507.6m-36.309-54.2v40.7a1.16,1.16,0,0,0,.87,1.122l31.3,8.135V461.595l-30.673-9.314a1.16,1.16,0,0,0-1.5,1.111Z" transform="translate(-41.612 -236.922)" fill="#3d63ae"></path><path id="Path_600" data-name="Path 600" d="M720.539,594.92c-4.674,0-8.313,2.824-8.319,7.528-.012,9.1,8.493,8.088,8.493,8.088A3.285,3.285,0,0,0,724,607.259V598.2a3.285,3.285,0,0,0-3.285-3.285Z" transform="translate(-440.303 -363.689)" fill="#fff"></path><path id="Path_601" data-name="Path 601" d="M707.772,600.436a10.385,10.385,0,0,1-6.816-2.36c-2.03-1.8-3.046-4.436-3.046-7.831,0-5.649,4.28-9.595,10.388-9.595h.174A5.366,5.366,0,0,1,713.827,586v9.054a5.366,5.366,0,0,1-5.247,5.354C708.429,600.424,708.146,600.436,707.772,600.436Zm.532-15.647c-2.879,0-6.243,1.43-6.249,5.462,0,2.148.548,3.734,1.639,4.716a6.483,6.483,0,0,0,4.552,1.305l.232-.013a1.217,1.217,0,0,0,1.215-1.215V586a1.217,1.217,0,0,0-1.215-1.215Z" transform="translate(-428.069 -351.489)" fill="#3d63ae"></path><path id="Path_602" data-name="Path 602" d="M214.959,610.563c4.674,0,8.313-2.824,8.319-7.53.013-9.095-8.491-8.088-8.491-8.088a3.288,3.288,0,0,0-3.286,3.286v9.047a3.286,3.286,0,0,0,3.286,3.285Z" transform="translate(-12.2 -363.682)" fill="#fff"></path><path id="Path_603" data-name="Path 603" d="M202.758,600.451h-.173a5.366,5.366,0,0,1-5.356-5.354V586.05a5.366,5.366,0,0,1,5.247-5.354,10.7,10.7,0,0,1,7.625,2.329c2.03,1.8,3.046,4.436,3.046,7.831C213.139,596.5,208.868,600.451,202.758,600.451Zm-.173-15.618a1.22,1.22,0,0,0-1.217,1.217V595.1a1.218,1.218,0,0,0,1.217,1.215h.173c2.88,0,6.245-1.43,6.251-5.462,0-2.161-.555-3.753-1.658-4.734a6.608,6.608,0,0,0-4.522-1.305Z" transform="translate(0 -351.5)" fill="#3d63ae"></path></g></svg>