<svg xmlns="http://www.w3.org/2000/svg" width="123.703" height="69.803" viewBox="0 0 123.703 69.803"><g id="Hands-02" transform="translate(-119.46 -277.297)"><path id="Path_578" data-name="Path 578" d="M119.46,316.928c.93-2.559,1.883-5.115,2.8-7.68q5.342-14.959,10.676-29.923c.7-1.971,1.869-2.436,3.8-1.565q5.846,2.644,11.709,5.251a3.5,3.5,0,0,1,1.934,1.454.739.739,0,0,0,.555.265q7.94.642,15.88,1.26c.775.062,1.539.143,2.3.237a2.313,2.313,0,0,0,1.652-.415c2.325-1.533,4.65-3.069,7.053-4.465a9.231,9.231,0,0,1,2.87-.843,25.974,25.974,0,0,1,9.228-.293,24.614,24.614,0,0,1,7.368,2.92c1.071.561,2.066,1.266,3.125,1.86a2.328,2.328,0,0,0,1.2.341c2.906-.2,5.809-.446,8.71-.71a2.466,2.466,0,0,0,1.06-.383c3.264-2.072,6.509-4.168,9.764-6.251,1.871-1.195,3.019-.852,4.03,1.139q8.507,16.8,17.025,33.589c.174.344.343.693.519,1.035.859,1.674.465,2.861-1.22,3.653q-5.254,2.455-10.505,4.9c-.817.381-1.632.775-2.453,1.138a2.235,2.235,0,0,1-3.1-.808c-.325-.431-.639-.871-1.011-1.379-.386.274-.758.532-1.125.8-1.46,1.06-2.9,2.15-4.389,3.168a.87.87,0,0,0-.363,1.254c1.324,3.461.033,6.857-3.255,8.267a19.79,19.79,0,0,1-3.7.775,6.911,6.911,0,0,1-3.5,5.58,6.657,6.657,0,0,1-6.685.138,20.7,20.7,0,0,1-1.771,2.574c-2.229,2.376-5.4,2.821-8.506,1.249a1.063,1.063,0,0,0-1.286.11c-3.444,2.421-7.129,2.364-10.913.959a24.7,24.7,0,0,1-2.856-1.364.773.773,0,0,0-.958.042,6.058,6.058,0,0,1-9.036-2.182c-.239-.465-.431-.668-1.029-.6a6.857,6.857,0,0,1-7.418-4.23c-.226-.491-.511-.465-.908-.432a6.657,6.657,0,0,1-6.7-3.38,13.737,13.737,0,0,1-.742-1.63,19.593,19.593,0,0,1-2.506-.45,6.094,6.094,0,0,1-4.228-5.855,1.057,1.057,0,0,0-.628-1.085c-1.51-.829-2.991-1.7-4.535-2.6-.913,1.584-2.2,1.536-3.7,1.063-4.008-1.259-8.035-2.458-12.069-3.63a2.978,2.978,0,0,1-2.153-1.781Zm45.019,7.078.544-.2a6.924,6.924,0,0,1,8.827,4.151c.414,1.272.835,2.029,2.289,2.232a5.224,5.224,0,0,1,3.222,2.337c1.429-.9,2.184-.82,3.45.24,3.044,2.548,6.076,5.115,9.174,7.594a5.7,5.7,0,0,0,2.418,1.1,2.086,2.086,0,0,0,2.315-2.945,5.478,5.478,0,0,0-1.342-1.844c-3.955-3.465-7.955-6.878-11.934-10.316-1.8-1.55-3.6-3.09-5.363-4.677a2.133,2.133,0,0,1-.183-3.046,2.2,2.2,0,0,1,3.061-.27c.246.188.476.4.71.6,6.153,5.3,12.292,10.617,18.473,15.886a27.128,27.128,0,0,0,3.653,2.553,1.948,1.948,0,0,0,2.522-.491,2.88,2.88,0,0,0-.384-4.34q-4.775-4.113-9.563-8.214c-3.109-2.67-6.212-5.35-9.332-8.01a2.446,2.446,0,0,1-1.128-2.379,2.24,2.24,0,0,1,3.72-1.271c2.965,2.6,5.982,5.142,8.975,7.712,3.442,2.956,6.871,5.927,10.327,8.865a5.842,5.842,0,0,0,3.782,1.565,1.818,1.818,0,0,0,1.812-2.523,5.561,5.561,0,0,0-1.328-1.939q-8.169-7.63-16.405-15.189c-3.748-3.427-7.573-6.77-11.345-10.172a3.625,3.625,0,0,0-2.732-1.038,10.113,10.113,0,0,0-1.913.245,1.705,1.705,0,0,0-.849.637c-1.15,1.579-2.147,3.287-3.41,4.761a11.17,11.17,0,0,1-9.747,4.053,5.974,5.974,0,0,1-5.79-6.438,9.761,9.761,0,0,1,2.584-5.755,3.81,3.81,0,0,0,.9-1.886c.361-1.723.86-3.417,1.314-5.164a3.151,3.151,0,0,0-.431-.082c-4.907-.4-9.815-.775-14.724-1.192-.522-.043-.594.2-.662.6a91.136,91.136,0,0,1-7.943,23.829c-.775,1.641-1.615,3.255-2.446,4.93l4.879,2.805c.276-.4.5-.749.739-1.085a6.03,6.03,0,0,1,9.242-.952,3.107,3.107,0,0,0,3.179,1.113c2.993-.449,5.256.97,6.846,3.613Zm57.44-6.458c-.174-.31-.31-.549-.453-.786a98.886,98.886,0,0,1-11.433-26.932c-.138-.524-.31-.707-.879-.654-2.387.222-4.784.33-7.163.606a4.586,4.586,0,0,1-4.014-1.043,6.946,6.946,0,0,0-1.085-.728c-4.185-2.635-8.585-4.4-13.667-3.433a11.742,11.742,0,0,0-3.572.86c-2.568,1.465-4.974,3.213-7.477,4.8a6.97,6.97,0,0,0-3.143,5.082,11.862,11.862,0,0,0-.2,1.218,5.358,5.358,0,0,1-1.737,3.71,7.44,7.44,0,0,0-1.576,2.945c-.363,1.085.206,1.8,1.341,1.973a6.519,6.519,0,0,0,5.562-1.7,16.02,16.02,0,0,0,3.82-5.2,3.6,3.6,0,0,1,2.68-2.187c.4-.087.8-.217,1.2-.293,2.956-.555,5.722-.372,8.106,1.8,6.122,5.564,12.292,11.078,18.42,16.635,2.77,2.511,5.488,5.077,8.233,7.615.251.231.446.542.9.2C217.779,320.54,219.811,319.085,221.919,317.548Zm-85.4-35.027c-4,11.206-7.973,22.318-11.968,33.507l9.636,2.883a101.1,101.1,0,0,0,9.5-21.957c.908-3.129,1.462-6.362,2.142-9.555a.916.916,0,0,0-.276-.8C142.587,285.228,139.6,283.9,136.516,282.521Zm85.5.2c-2.514,1.609-4.912,3.165-7.339,4.676a.786.786,0,0,0-.411,1.062c.879,2.8,1.648,5.642,2.624,8.407a90.091,90.091,0,0,0,10.748,21.256c.381.552.665.6,1.24.31,1.283-.659,2.608-1.24,3.915-1.844l5.142-2.4c-5.318-10.513-10.6-20.945-15.92-31.469ZM167.435,327.9a2.558,2.558,0,0,0-2.4,1.282c-1.069,1.637-2.154,3.264-3.2,4.913a2.079,2.079,0,0,0-.31,1.006,2.5,2.5,0,0,0,1.632,2.393,2.571,2.571,0,0,0,2.983-.849c1.176-1.6,2.34-3.205,3.4-4.882A2.538,2.538,0,0,0,167.435,327.9Zm-11.581,5.074a3.589,3.589,0,0,0,1.795-.843c1-1.3,1.874-2.7,2.746-4.1a2.074,2.074,0,0,0,.31-1.212,2.384,2.384,0,0,0-4.242-1.169c-.911,1.24-1.8,2.514-2.608,3.827a2.338,2.338,0,0,0,2.006,3.493Zm22.616,7.979c2.393,1.719,6.607,2.362,8.29.86l-6.167-5.115Zm-2.559-5.141a1.541,1.541,0,0,0-1.023-1.381,1.5,1.5,0,0,0-1.892.42c-1.032,1.381-2.041,2.79-2.945,4.251a1.631,1.631,0,0,0,1.361,2.429c.465.026.826-.022.854-.679a2.074,2.074,0,0,1,1.472-1.9A4.517,4.517,0,0,0,175.911,335.81Zm-23.883-11.977a1.706,1.706,0,0,0-1.113-1.686,1.546,1.546,0,0,0-1.889.465,28.581,28.581,0,0,0-1.815,2.593,1.667,1.667,0,0,0,.476,2.21,1.641,1.641,0,0,0,2.185-.135c.725-.93,1.359-1.936,2.015-2.923a1.637,1.637,0,0,0,.141-.524Z" transform="translate(0 0)" fill="#3d63ae"></path></g></svg>