<svg xmlns="http://www.w3.org/2000/svg" width="67.457" height="95.951" viewBox="0 0 67.457 95.951"><g id="Icon_Travel-02-02" data-name="Icon Travel-02-02" transform="translate(-229.18 -101.127)"><path id="Path_594" data-name="Path 594" d="M262.844,193.085c-3.659-4.751-7.352-9.29-10.764-14.031-7.608-10.567-14.582-21.491-18.642-34.025-6.2-19.134,5.718-37.086,23.228-40.711a31.01,31.01,0,0,1,36.3,38.718,85.361,85.361,0,0,1-6.414,15.785C280.277,171.182,271.957,182.186,262.844,193.085Z" transform="translate(0)" fill="none" stroke="#3d63ae" stroke-miterlimit="10" stroke-width="5"></path><path id="Path_595" data-name="Path 595" d="M366.771,253.951a15.337,15.337,0,1,0-15.261-15.576A15.3,15.3,0,0,0,366.771,253.951Z" transform="translate(-103.839 -103.754)" fill="none" stroke="#3d63ae" stroke-miterlimit="10" stroke-width="5"></path></g></svg>